<?xml version="1.0" ?><svg id="Layer_1" style="enable-background:new 0 0 512 512;" version="1.1" viewBox="0 0 512 512" xml:space="preserve" xmlns="http://www.w3.org/2000/svg" xmlns:xlink="http://www.w3.org/1999/xlink"><style type="text/css">
	.st0{fill:#2E2E2E;}
	.st1{fill:#5EA4D3;}
</style><g><g id="XMLID_101_"><polygon class="st0" id="XMLID_104_" points="340.1,6 340.1,112.8 448.6,112.8   "/><path class="st1" d="M448.4,124.8H328.3c-0.1,0-0.2-0.1-0.2-0.2V6.5c0-0.1-0.1-0.2-0.2-0.2H81.6    c-0.1,0-0.2,0.1-0.2,0.2v270.2h229.8l58.9,159H81.4v70c0,0.1,0.1,0.2,0.2,0.2h366.2c0.1,0,0.2-0.1,0.2-0.2l0.6-380.7    C448.6,124.9,448.5,124.8,448.4,124.8z" id="XMLID_103_"/></g><path class="st0" d="M302.9,288.8H63.4v135h289.5L302.9,288.8z M133.3,383c-4.4,3.4-10.2,5-17.4,5c-6.9,0-12.9-1.8-18.1-5.5   c-5.1-3.7-7.6-8.9-7.5-15.6l0.1-0.3h10.9c0,4.1,1.4,7.2,4.2,9.2c2.8,2.1,6.3,3.1,10.3,3.1c4,0,7.1-0.8,9.4-2.5   c2.2-1.7,3.3-4,3.3-6.9c0-2.8-1-5.2-3-7c-2-1.8-5.6-3.4-10.7-4.9c-7.3-2-13-4.7-16.9-8c-4-3.3-6-7.6-6-12.9c0-5.5,2.2-10,6.5-13.6   c4.4-3.6,10-5.3,16.8-5.3c7.4,0,13.2,2,17.6,5.9c4.4,3.9,6.5,8.8,6.4,14.6l-0.1,0.3h-10.9c0-3.6-1.2-6.4-3.6-8.6   c-2.4-2.1-5.6-3.2-9.5-3.2c-3.8,0-6.8,0.9-8.9,2.7c-2.1,1.8-3.1,4.1-3.1,7c0,2.6,1.1,4.8,3.4,6.5c2.3,1.7,6,3.3,11.3,4.8   c7.1,2,12.6,4.7,16.3,8.2c3.7,3.4,5.6,7.8,5.6,13.2C139.9,375.2,137.7,379.7,133.3,383z M183,387.1h-10.8l-24.3-68h12.1l16.2,49.6   l1.2,5h0.3l1.2-4.9l16.3-49.7h12.1L183,387.1z M267.8,377.9c-1.9,2.6-4.9,5-8.9,7.1c-4.1,2.1-9.4,3.1-15.9,3.1   c-8,0-14.6-2.6-19.8-7.8c-5.2-5.2-7.8-11.9-7.8-20.1V346c0-8.2,2.5-14.9,7.5-20.1c5-5.2,11.5-7.8,19.3-7.8c7.9,0,14.1,2,18.5,6   c4.4,4,6.6,9.2,6.4,15.6l-0.1,0.3h-10.8c0-3.8-1.2-6.9-3.6-9.3c-2.4-2.3-5.8-3.5-10.3-3.5c-4.7,0-8.5,1.8-11.4,5.3   c-2.9,3.5-4.3,8-4.3,13.4v14.3c0,5.5,1.5,10,4.5,13.5c3,3.5,6.9,5.3,11.8,5.3c3.6,0,6.5-0.4,8.6-1.2c2.1-0.8,3.7-1.8,4.8-3v-14.1   h-14.3v-8.5h25.6V377.9z"/></g></svg>